# xmcd
#
# Track frame offsets: 
#        150
#        14352
#        37102
#        51447
#        65615
#        80367
#        91165
#        108177
#        128482
#        142667
#        159440
#        177400
#        190492
#        203007
#        223032
#        234077
#        250155
#
# Disc length: 3505 seconds
#
# Revision: 2
# Processed by: cddbd v1.5.2PL0 Copyright (c) Steve Scherf et al.
# Submitted via: ExactAudioCopy v1.3
#
DISCID=df0daf11
DTITLE=Steinar Albrigtsen - Bound to wander
DYEAR=1992
DGENRE=Country
TTITLE0=I Just Wanna Fall In LoveLE14=Habit Of My Heart
TTITLE1=Now and ThenLE14=Habit Of My Heart
TTITLE2=Strawberry CreekLE14=Habit Of My Heart
TTITLE3=The Beginning Of The EndLE14=Habit Of My Heart
TTITLE4=Bound To WanderLE14=Habit Of My Heart
TTITLE5=That Sudden StopLE14=Habit Of My Heart
TTITLE6=Cruise ControlLE14=Habit Of My Heart
TTITLE7=Brown Eyed GirlLE14=Habit Of My Heart
TTITLE8=Standing By The WaterfallLE14=Habit Of My Heart
TTITLE9=Say WhenLE14=Habit Of My Heart
TTITLE10=Streets Of Blue RainE14=Habit Of My Heart
TTITLE11=Bad Luck BluesE14=Habit Of My Heart
TTITLE12=Old Flame BurnsE14=Habit Of My Heart
TTITLE13=I Can't Get Close To YouE14=Habit Of My Heart
TTITLE14=Habit Of My Heart
TTITLE15=Still One Broken Heart
TTITLE16=Close Call
EXTD=
EXTT0=
EXTT1=
EXTT2=
EXTT3=
EXTT4=
EXTT5=
EXTT6=
EXTT7=
EXTT8=
EXTT9=
EXTT10=
EXTT11=
EXTT12=
EXTT13=
EXTT14=
EXTT15=
EXTT16=
PLAYORDER=
